<?xml version="1.0" standalone="no"?>
<!DOCTYPE svg PUBLIC "-//W3C//DTD SVG 20010904//EN"
 "http://www.w3.org/TR/2001/REC-SVG-20010904/DTD/svg10.dtd">
<svg version="1.0" xmlns="http://www.w3.org/2000/svg"
 width="1040.000000pt" height="1112.000000pt" viewBox="0 0 1040.000000 1112.000000"
 preserveAspectRatio="xMidYMid meet">
<metadata>
Created by potrace 1.16, written by Peter Selinger 2001-2019
</metadata>
<g transform="translate(0.000000,1112.000000) scale(0.100000,-0.100000)"
fill="#000000" stroke="none">
<path d="M4980 9253 c-391 -40 -597 -84 -888 -189 -685 -248 -1281 -735 -1663
-1359 -549 -895 -630 -2001 -217 -2970 372 -873 1122 -1548 2028 -1828 943
-291 1952 -144 2765 404 258 174 505 396 699 629 182 219 370 528 484 795 551
1293 212 2785 -844 3714 -520 458 -1152 730 -1848 796 -142 13 -422 18 -516 8z
m450 -353 c591 -53 1118 -261 1570 -620 126 -100 370 -342 464 -460 635 -799
805 -1855 455 -2815 -55 -151 -193 -427 -280 -560 -287 -440 -683 -796 -1140
-1025 -430 -216 -912 -323 -1384 -307 -443 16 -805 107 -1202 303 -830 410
-1416 1198 -1572 2114 -119 699 33 1442 415 2037 163 255 442 559 674 737 576
441 1304 658 2000 596z"/>
<path d="M4120 7188 c0 -5 13 -35 245 -563 92 -209 221 -504 287 -655 67 -151
147 -333 178 -405 32 -71 89 -203 128 -293 96 -217 103 -231 162 -296 61 -66
164 -121 255 -136 73 -12 255 -13 255 -2 0 7 -157 364 -270 612 -74 162 -403
896 -507 1130 -157 353 -186 410 -238 463 -100 103 -186 137 -367 144 -71 3
-128 4 -128 1z"/>
<path d="M4850 7183 c0 -4 92 -134 205 -288 113 -154 256 -349 318 -434 61
-84 137 -188 168 -230 200 -272 267 -364 403 -551 98 -136 123 -160 164 -160
25 0 41 8 60 29 15 16 187 243 382 505 195 261 358 475 363 476 4 0 7 -330 7
-733 l0 -734 33 -64 c59 -116 169 -173 328 -168 l79 3 0 1179 0 1179 -212 -4
c-203 -4 -216 -5 -268 -30 -35 -15 -72 -43 -98 -74 -24 -27 -178 -236 -343
-464 -166 -228 -306 -421 -313 -428 -13 -14 -13 -15 -196 238 -46 63 -100 138
-120 165 -21 28 -104 142 -185 255 -174 241 -202 272 -275 308 -54 26 -59 27
-277 30 -123 2 -223 0 -223 -5z"/>
<path d="M3885 6717 c-304 -677 -397 -884 -505 -1127 -65 -146 -166 -370 -224
-499 -58 -129 -106 -240 -106 -248 0 -10 46 -13 234 -13 l235 0 33 63 c21 40
65 95 128 158 81 81 109 102 190 142 135 66 192 78 415 84 198 6 223 11 273
57 71 64 83 187 27 268 -17 23 -50 52 -74 65 -43 23 -50 23 -327 23 l-283 0
55 125 c109 250 146 404 146 620 0 156 -21 284 -68 419 -18 55 -35 101 -37
102 -2 2 -52 -106 -112 -239z"/>
</g>
</svg>
