<?xml version="1.0" standalone="no"?>
<!DOCTYPE svg PUBLIC "-//W3C//DTD SVG 20010904//EN"
 "http://www.w3.org/TR/2001/REC-SVG-20010904/DTD/svg10.dtd">
<svg version="1.0" xmlns="http://www.w3.org/2000/svg"
 width="1300.000000pt" height="1390.000000pt" viewBox="0 0 1300.000000 1390.000000"
 preserveAspectRatio="xMidYMid meet">
<metadata>
Created by potrace 1.16, written by Peter Selinger 2001-2019
</metadata>
<g transform="translate(0.000000,1390.000000) scale(0.100000,-0.100000)"
fill="#000000" stroke="none">
<path d="M6230 10639 c-1055 -92 -1997 -685 -2532 -1594 -290 -494 -448 -1072
-448 -1646 -1 -1009 478 -1971 1285 -2585 993 -756 2334 -875 3443 -307 675
346 1214 924 1510 1618 273 641 333 1330 176 2014 -289 1254 -1321 2233 -2594
2460 -253 46 -593 62 -840 40z m505 -349 c928 -80 1748 -586 2238 -1381 363
-589 501 -1298 386 -1984 -137 -828 -630 -1558 -1351 -1999 -848 -519 -1909
-565 -2799 -121 -416 208 -799 535 -1066 911 -687 965 -724 2227 -94 3229 200
318 523 652 836 862 538 362 1211 537 1850 483z"/>
<path d="M5422 8569 c3 -8 72 -165 153 -349 547 -1248 760 -1730 776 -1761 34
-68 116 -147 192 -184 84 -41 155 -55 291 -55 89 0 98 2 93 18 -4 14 -432 972
-577 1292 -21 47 -113 250 -203 452 -103 229 -179 387 -203 419 -45 58 -129
118 -212 149 -73 28 -319 43 -310 19z"/>
<path d="M6153 8566 c3 -7 92 -132 199 -277 107 -145 214 -292 239 -326 24
-34 127 -175 229 -313 102 -138 219 -298 260 -355 278 -383 280 -385 331 -385
17 0 38 11 56 29 15 16 188 243 383 505 195 261 358 475 363 476 4 0 7 -330 7
-734 l0 -734 33 -63 c35 -68 103 -130 167 -151 19 -6 81 -12 138 -14 l102 -2
0 1180 0 1180 -212 -4 c-209 -4 -214 -4 -270 -31 -34 -17 -74 -47 -98 -75 -23
-26 -176 -234 -341 -462 -166 -228 -306 -421 -313 -428 -14 -15 -4 -27 -290
368 -98 135 -210 290 -249 344 -153 211 -200 254 -297 275 -28 6 -139 11 -247
11 -160 0 -194 -2 -190 -14z"/>
<path d="M5271 8300 c-23 -54 -127 -287 -378 -845 -75 -165 -192 -426 -261
-580 -69 -154 -156 -350 -195 -435 -38 -85 -76 -170 -83 -187 l-14 -33 239 0
238 0 46 78 c85 146 239 270 404 327 92 32 198 45 364 45 148 0 176 7 227 54
85 76 83 221 -2 302 -50 48 -56 49 -362 54 l-291 5 58 134 c106 242 141 389
141 602 0 172 -33 356 -90 489 l-18 43 -23 -53z"/>
<path d="M0 450 l0 -450 6500 0 6500 0 0 450 0 450 -6500 0 -6500 0 0 -450z
m970 241 c6 -12 10 -109 10 -245 0 -191 -2 -227 -16 -240 -23 -24 -465 -24
-488 0 -14 13 -16 49 -16 240 0 136 4 233 10 245 10 18 24 19 250 19 226 0
240 -1 250 -19z m534 13 c14 -5 16 -33 16 -204 0 -172 -2 -199 -16 -204 -9 -3
-20 -4 -25 0 -10 6 -13 397 -2 407 8 8 8 8 27 1z m2106 -126 l5 -118 48 60
c35 44 54 60 72 60 14 0 25 -3 25 -7 0 -4 -17 -27 -38 -52 -20 -25 -43 -54
-51 -63 -11 -15 -6 -25 44 -84 36 -43 53 -70 47 -76 -18 -18 -49 2 -99 60
l-48 56 -5 -59 c-4 -52 -8 -60 -25 -60 -19 0 -20 8 -23 203 l-2 203 22 -3 c22
-3 23 -8 28 -120z m640 51 c0 -64 2 -70 18 -63 9 5 39 9 65 9 71 0 77 -13 77
-156 0 -65 -4 -120 -9 -123 -5 -4 -16 -3 -25 0 -13 5 -16 25 -16 115 0 106 -1
110 -24 120 -18 9 -31 8 -52 -3 -29 -13 -29 -14 -34 -123 -5 -102 -7 -110 -25
-110 -19 0 -20 8 -23 203 l-2 202 25 0 c24 0 25 -2 25 -71z m-1292 -16 c3 -26
8 -32 30 -35 16 -2 28 -10 30 -20 3 -14 -3 -18 -28 -18 l-31 0 3 -97 3 -98 28
-3 c22 -3 28 -8 25 -25 -4 -26 -30 -33 -68 -17 -35 14 -40 32 -40 148 0 85 -1
92 -20 92 -26 0 -26 30 -1 37 12 3 21 17 26 40 8 45 39 43 43 -4z m1840 -1 c3
-26 7 -32 28 -32 17 0 24 -5 24 -20 0 -15 -7 -20 -25 -20 l-25 0 0 -100 0
-100 25 0 c29 0 45 -27 24 -41 -19 -13 -71 -2 -86 18 -9 11 -13 53 -13 120 0
96 -1 103 -20 103 -12 0 -20 7 -20 16 0 9 9 18 20 21 14 4 20 14 20 32 0 54
43 56 48 3z m-3421 -56 c27 -24 28 -27 31 -140 4 -113 3 -116 -17 -116 -12 0
-24 7 -28 15 -5 14 -7 14 -22 1 -25 -23 -67 -29 -106 -16 -39 13 -55 35 -55
75 0 59 47 95 124 95 53 0 64 12 41 46 -17 27 -39 28 -117 9 -24 -6 -28 -4
-28 14 0 27 29 40 97 40 41 1 58 -4 80 -23z m398 -1 c23 -22 25 -32 25 -117 0
-51 3 -103 6 -115 5 -20 2 -23 -20 -23 -15 0 -26 6 -26 14 0 10 -9 9 -40 -6
-78 -39 -144 -4 -138 73 4 57 47 89 119 89 46 0 49 2 49 25 0 38 -38 52 -97
36 -37 -9 -48 -9 -54 1 -17 27 22 46 99 47 43 1 57 -3 77 -24z m131 10 c5 -13
8 -13 27 0 28 20 87 19 115 -1 20 -14 24 -14 44 0 35 25 94 20 123 -9 24 -23
25 -30 25 -139 0 -82 -3 -116 -12 -119 -33 -11 -38 5 -38 108 0 81 -3 107 -16
119 -20 20 -43 20 -72 0 -20 -14 -22 -23 -22 -120 l0 -104 -25 0 c-25 0 -25 0
-25 98 0 131 -27 169 -88 126 -20 -14 -22 -23 -22 -120 0 -103 0 -104 -24
-104 l-24 0 -4 133 c-2 72 -2 135 0 140 6 13 32 8 38 -8z m455 -75 c18 -49 36
-90 40 -90 4 0 13 17 20 38 39 122 50 142 75 142 30 0 33 9 -43 -187 -58 -149
-95 -203 -138 -203 -36 0 -37 32 -1 50 17 8 37 27 45 41 14 25 12 35 -32 150
-26 68 -47 130 -47 137 0 6 11 12 23 12 21 0 28 -12 58 -90z m458 81 c8 -5 11
-16 7 -26 -4 -13 -13 -15 -36 -10 -40 9 -70 -2 -70 -26 0 -15 15 -27 54 -44
56 -25 66 -38 66 -85 0 -42 -9 -59 -41 -75 -33 -18 -51 -18 -102 -4 -28 7 -37
15 -35 27 3 14 15 17 63 17 60 0 60 0 60 30 0 30 -7 36 -80 67 -26 11 -30 19
-33 55 -4 56 24 83 87 83 25 0 52 -4 60 -9z m408 -11 c39 -23 58 -82 50 -152
-7 -59 -23 -84 -66 -104 -48 -23 -106 -13 -144 25 -59 58 -45 200 22 236 37
20 101 18 138 -5z m278 7 c31 -23 9 -39 -44 -32 -38 5 -52 3 -70 -12 -28 -23
-39 -98 -21 -143 15 -35 43 -45 105 -37 32 5 45 3 48 -8 13 -33 -63 -54 -131
-35 -63 17 -84 55 -80 147 3 75 19 106 63 124 32 13 110 10 130 -4z m453 -3
c9 -16 11 -16 33 0 33 23 90 21 118 -5 31 -29 41 -61 41 -127 0 -113 -66 -164
-162 -127 -15 6 -17 -2 -20 -57 -3 -55 -5 -63 -23 -63 -19 0 -20 8 -25 188 -5
175 -1 207 22 207 4 0 11 -7 16 -16z m682 3 c35 -17 60 -73 60 -132 0 -73 -25
-117 -77 -135 -38 -13 -48 -13 -85 0 -51 19 -76 51 -84 112 -9 62 17 132 54
153 33 18 99 19 132 2z m421 -4 c37 -22 54 -65 54 -135 -1 -70 -24 -107 -82
-127 -57 -20 -116 -3 -143 42 -42 69 -17 203 43 227 36 14 97 11 128 -7z"/>
<path d="M642 589 c-26 -10 -27 -47 -1 -40 8 2 31 8 51 13 28 8 46 7 68 -2 25
-10 30 -18 30 -46 l0 -34 -50 0 c-60 0 -114 -20 -129 -48 -19 -35 -13 -86 12
-110 31 -29 97 -30 143 -1 l34 21 0 -21 c0 -15 6 -21 21 -21 20 0 21 4 17 126
-3 124 -3 126 -31 150 -23 19 -39 24 -85 23 -31 0 -67 -4 -80 -10z"/>
<path d="M3110 522 c-29 -24 -38 -95 -17 -145 15 -34 19 -37 55 -37 57 0 77
26 77 102 -1 51 -4 63 -24 79 -29 24 -62 24 -91 1z"/>
<path d="M3998 524 c-27 -14 -28 -18 -28 -89 0 -82 9 -95 69 -95 40 0 61 32
61 93 0 93 -38 126 -102 91z"/>
<path d="M4538 529 c-38 -22 -46 -140 -11 -174 18 -19 73 -19 99 -1 15 12 19
27 19 81 0 58 -3 69 -24 86 -25 21 -56 24 -83 8z"/>
<path d="M4945 515 c-20 -19 -25 -34 -25 -77 0 -72 19 -98 70 -98 57 0 76 34
72 128 -4 66 -71 94 -117 47z"/>
</g>
</svg>
